<svg width="89" height="39" viewBox="0 0 89 39" fill="none" xmlns="http://www.w3.org/2000/svg">
<path d="M19 9.5L18.5485 9.8951C18.6624 10.0253 18.827 10.1 19 10.1C19.173 10.1 19.3376 10.0253 19.4515 9.8951L19 9.5ZM12 1.5L12.4515 1.1049C12.3376 0.974688 12.173 0.9 12 0.9V1.5ZM26 1.5V0.9C25.827 0.9 25.6624 0.974688 25.5485 1.1049L26 1.5ZM37 1.5L37.4632 1.88141C37.6108 1.70218 37.6417 1.45389 37.5426 1.24392C37.4435 1.03395 37.2322 0.9 37 0.9V1.5ZM25.617 15.323L26.08 15.7046L26.0802 15.7044L25.617 15.323ZM24.391 16.8108L23.928 16.4292C23.8387 16.5375 23.7902 16.6737 23.791 16.814L24.391 16.8108ZM24.3911 16.833H24.9911L24.9911 16.8298L24.3911 16.833ZM24.2601 17.526L23.6972 17.3185C23.5951 17.5953 23.7094 17.9052 23.9668 18.0494L24.2601 17.526ZM29.7251 26.833H30.3251V26.8329L29.7251 26.833ZM13.8551 17.526L14.1485 18.0494C14.4066 17.9047 14.5207 17.5934 14.4172 17.3162L13.8551 17.526ZM13.7283 16.9558L14.3269 16.9151C14.3184 16.7902 14.2711 16.671 14.1914 16.5744L13.7283 16.9558ZM1 1.5V0.9C0.76782 0.9 0.55648 1.03396 0.457388 1.24393C0.358297 1.4539 0.389243 1.7022 0.536842 1.88142L1 1.5ZM70 9.5L69.5485 9.8951C69.6624 10.0253 69.827 10.1 70 10.1C70.173 10.1 70.3376 10.0253 70.4515 9.8951L70 9.5ZM63 1.5L63.4515 1.1049C63.3376 0.974688 63.173 0.9 63 0.9V1.5ZM77 1.5V0.9C76.827 0.9 76.6624 0.974688 76.5485 1.1049L77 1.5ZM88 1.5L88.4632 1.88141C88.6108 1.70218 88.6417 1.45389 88.5426 1.24392C88.4435 1.03395 88.2322 0.9 88 0.9V1.5ZM76.617 15.323L77.08 15.7046L77.0802 15.7044L76.617 15.323ZM75.391 16.8108L74.9279 16.4292C74.8387 16.5375 74.7902 16.6737 74.791 16.8141L75.391 16.8108ZM75.3911 16.833H75.9911L75.9911 16.8297L75.3911 16.833ZM75.2601 17.526L74.6972 17.3185C74.5951 17.5953 74.7094 17.9052 74.9668 18.0494L75.2601 17.526ZM80.7251 26.833H81.3251V26.8329L80.7251 26.833ZM64.8551 17.526L65.1485 18.0494C65.4066 17.9047 65.5207 17.5934 65.4172 17.3162L64.8551 17.526ZM64.7283 16.9558L65.3269 16.9151C65.3184 16.7902 65.2711 16.671 65.1915 16.5744L64.7283 16.9558ZM52 1.5V0.9C51.7678 0.9 51.5565 1.03396 51.4574 1.24393C51.3583 1.4539 51.3892 1.7022 51.5368 1.88142L52 1.5ZM19.4515 9.1049L12.4515 1.1049L11.5485 1.8951L18.5485 9.8951L19.4515 9.1049ZM25.5485 1.1049L18.5485 9.1049L19.4515 9.8951L26.4515 1.8951L25.5485 1.1049ZM37 0.9H26V2.1H37V0.9ZM26.0802 15.7044L37.4632 1.88141L36.5368 1.11859L25.1538 14.9416L26.0802 15.7044ZM24.854 17.1924L26.08 15.7046L25.154 14.9414L23.928 16.4292L24.854 17.1924ZM24.9911 16.8298L24.991 16.8075L23.791 16.814L23.7911 16.8363L24.9911 16.8298ZM24.8231 17.7336C24.9223 17.4644 24.9911 17.1626 24.9911 16.833H23.7911C23.7911 16.9934 23.7579 17.1536 23.6972 17.3185L24.8231 17.7336ZM30.3251 26.8329C30.3241 22.6065 27.9935 18.9301 24.5534 17.0026L23.9668 18.0494C27.0447 19.774 29.1242 23.0595 29.1251 26.8332L30.3251 26.8329ZM19.0581 38.1C25.2805 38.1 30.3251 33.0554 30.3251 26.833H29.1251C29.1251 32.3926 24.6177 36.9 19.0581 36.9V38.1ZM7.79111 26.833C7.79111 33.0553 12.8347 38.1 19.0581 38.1V36.9C13.4975 36.9 8.99111 32.3927 8.99111 26.833H7.79111ZM13.5618 17.0026C10.1228 18.93 7.79111 22.6065 7.79111 26.833H8.99111C8.99111 23.0596 11.0715 19.774 14.1485 18.0494L13.5618 17.0026ZM13.1297 16.9965C13.1477 17.2625 13.2086 17.5096 13.293 17.7358L14.4172 17.3162C14.367 17.1816 14.336 17.0486 14.3269 16.9151L13.1297 16.9965ZM0.536842 1.88142L13.2651 17.3372L14.1914 16.5744L1.46316 1.11858L0.536842 1.88142ZM12 0.9H1V2.1H12V0.9ZM70.4515 9.1049L63.4515 1.1049L62.5485 1.8951L69.5485 9.8951L70.4515 9.1049ZM76.5485 1.1049L69.5485 9.1049L70.4515 9.8951L77.4515 1.8951L76.5485 1.1049ZM88 0.9H77V2.1H88V0.9ZM77.0802 15.7044L88.4632 1.88141L87.5368 1.11859L76.1538 14.9416L77.0802 15.7044ZM75.854 17.1924L77.08 15.7046L76.154 14.9414L74.9279 16.4292L75.854 17.1924ZM75.9911 16.8297L75.991 16.8075L74.791 16.8141L74.7911 16.8363L75.9911 16.8297ZM75.8231 17.7335C75.9223 17.4644 75.9911 17.1626 75.9911 16.833H74.7911C74.7911 16.9934 74.7579 17.1536 74.6972 17.3185L75.8231 17.7335ZM81.3251 26.8329C81.3241 22.6065 78.9935 18.9301 75.5534 17.0026L74.9668 18.0494C78.0447 19.774 80.1242 23.0595 80.1251 26.8332L81.3251 26.8329ZM70.0581 38.1C76.2805 38.1 81.3251 33.0554 81.3251 26.833H80.1251C80.1251 32.3926 75.6177 36.9 70.0581 36.9V38.1ZM58.7911 26.833C58.7911 33.0553 63.8347 38.1 70.0581 38.1V36.9C64.4975 36.9 59.9911 32.3927 59.9911 26.833H58.7911ZM64.5618 17.0026C61.1228 18.93 58.7911 22.6065 58.7911 26.833H59.9911C59.9911 23.0596 62.0715 19.774 65.1485 18.0494L64.5618 17.0026ZM64.1297 16.9965C64.1477 17.2625 64.2086 17.5096 64.293 17.7358L65.4172 17.3162C65.367 17.1816 65.336 17.0486 65.3269 16.9151L64.1297 16.9965ZM51.5368 1.88142L64.2651 17.3372L65.1915 16.5744L52.4632 1.11858L51.5368 1.88142ZM63 0.9H52V2.1H63V0.9Z" fill="white"/>
</svg>
