<svg width="50" height="40" viewBox="0 0 50 40" fill="none" xmlns="http://www.w3.org/2000/svg">
<path d="M39.2641 26.5805L49.1906 29.7047C49.5922 29.8281 49.9992 29.5281 49.9992 29.107V27.7992C49.9992 27.525 49.8203 27.2828 49.5578 27.2016L40 24.1906V18.9945C40 17.2539 39.5461 15.5437 38.682 14.0328L31.9258 2.20781C31.1492 0.846094 29.693 0 28.1242 0C26.9688 0 25.8383 0.469531 25 1.32344C24.1617 0.469531 23.0312 0 21.8758 0C20.307 0 18.8508 0.846094 18.0742 2.20781L11.3172 14.0336C10.4539 15.5447 9.99988 17.255 10 18.9953V24.1914L0.441406 27.2016C0.313641 27.241 0.201854 27.3203 0.122421 27.4278C0.0429888 27.5354 8.64836e-05 27.6655 0 27.7992L0 29.107C0 29.5273 0.407031 29.8281 0.808594 29.7047L10.7352 26.5805C11.7836 26.2578 12.4992 25.2883 12.4992 24.1914V18.9953C12.4992 17.6898 12.8398 16.407 13.4875 15.2742L20.2461 3.44609C20.7875 2.49609 21.9523 2.26172 22.8047 2.74766C23.7031 3.26172 24.0156 4.40781 23.5031 5.30625L18.4883 14.082C17.8407 15.2153 17.5001 16.4979 17.5 17.8031V24.3758C17.5 24.7211 17.7797 25.0008 18.125 25.0008H19.375C19.7203 25.0008 20 24.7211 20 24.3758V19.3758C20 18.3406 20.8398 17.5008 21.875 17.5008C22.9102 17.5008 23.75 18.3406 23.75 19.3758V26.1008C23.75 28.9023 21.8852 31.3617 19.1883 32.1188L0.45625 37.475C0.32506 37.5119 0.209505 37.5906 0.127152 37.6992C0.0447986 37.8078 0.000152257 37.9403 0 38.0766L0 39.375C0 39.7891 0.395312 40.0883 0.79375 39.9766L19.8633 34.5258C22.0828 33.9031 23.8789 32.4453 25 30.5625C26.1211 32.4445 27.9172 33.9031 30.1367 34.5258L49.2063 39.9766C49.6047 40.0883 50 39.7891 50 39.375V38.0766C50 37.7961 49.8133 37.5508 49.5437 37.475L30.8117 32.1188C28.1141 31.3617 26.25 28.9023 26.25 26.1008V19.3758C26.25 18.3406 27.0898 17.5008 28.125 17.5008C29.1602 17.5008 30 18.3406 30 19.3758V24.3758C30 24.7211 30.2797 25.0008 30.625 25.0008H31.875C32.2203 25.0008 32.5 24.7211 32.5 24.3758V17.8031C32.5 16.4977 32.1594 15.2148 31.5117 14.082L26.4969 5.30625C25.9844 4.40781 26.2969 3.26172 27.1953 2.74766C28.0523 2.25859 29.2164 2.50234 29.7539 3.44609L36.5125 15.2742C37.1601 16.4074 37.5008 17.6901 37.5008 18.9953V24.1914C37.5 25.2883 38.2156 26.257 39.2641 26.5805ZM29.2398 15.1445C28.7437 15.0133 28.2133 14.968 27.6648 15.0242C26.5977 15.1336 25.6828 15.6664 25 16.4266C24.318 15.6664 23.4023 15.1336 22.3352 15.0242C21.7875 14.968 21.257 15.0133 20.7602 15.1445L25 7.72578L29.2398 15.1445Z" fill="#88C1A3"/>
</svg>
