<svg width="53" height="61" viewBox="0 0 53 61" fill="none" xmlns="http://www.w3.org/2000/svg">
<path d="M47.3214 3.8125H5.67857C2.54234 3.8125 0 6.37283 0 9.53125V51.4688C0 54.6272 2.54234 57.1875 5.67857 57.1875H47.3214C50.4577 57.1875 53 54.6272 53 51.4688V9.53125C53 6.37283 50.4577 3.8125 47.3214 3.8125ZM49.2143 51.4688C49.2143 52.5198 48.3651 53.375 47.3214 53.375H5.67857C4.6349 53.375 3.78571 52.5198 3.78571 51.4688V9.53125C3.78571 8.48019 4.6349 7.625 5.67857 7.625H47.3214C48.3651 7.625 49.2143 8.48019 49.2143 9.53125V51.4688ZM26.5 40.5078C24.6706 40.5078 23.1875 42.0014 23.1875 43.8438C23.1875 45.6861 24.6706 47.1797 26.5 47.1797C28.3294 47.1797 29.8125 45.6861 29.8125 43.8438C29.8125 42.0014 28.3294 40.5078 26.5 40.5078ZM27.4074 37.6484H25.5145C24.7305 37.6484 24.0949 37.0083 24.0949 36.2188V36.1734C24.0949 27.7926 33.2563 28.5938 33.2563 23.3767C33.2563 20.992 31.1551 18.5859 26.461 18.5859C23.0131 18.5859 21.2243 19.7355 19.4561 22.0043C18.9938 22.5976 18.1484 22.7186 17.5339 22.2874L15.9801 21.1973C15.3146 20.7303 15.1685 19.7949 15.6672 19.1508C18.1783 15.9069 21.1576 13.8203 26.461 13.8203C32.6506 13.8203 37.9885 17.3649 37.9885 23.3767C37.9885 31.4084 28.827 30.9837 28.827 36.1734V36.2188C28.827 37.0083 28.1914 37.6484 27.4074 37.6484Z" fill="#88C1A3"/>
</svg>
