<svg width="36" height="37" viewBox="0 0 36 37" fill="none" xmlns="http://www.w3.org/2000/svg">
<path d="M18 8.5L11 0.5H0L14 17.5L25.521 12.75L18 8.5Z" fill="#C9DCC5"/>
<path d="M25 0.5L18 8.5L23.39 15.812L24.617 14.323L36 0.5H25Z" fill="#FBF6F3"/>
<path d="M23.2601 16.526C23.3401 16.309 23.3911 16.078 23.3911 15.833C23.3911 14.729 22.4951 13.833 21.3911 13.833H14.7241C13.6191 13.833 12.7241 14.729 12.7241 15.833C12.7241 16.078 12.7741 16.309 12.8551 16.526C9.59711 18.352 7.39111 21.833 7.39111 25.833C7.39111 31.724 12.1661 36.5 18.0581 36.5C23.9491 36.5 28.7251 31.724 28.7251 25.833C28.7241 21.833 26.5191 18.352 23.2601 16.526Z" fill="#FFCE63"/>
<path d="M18.0581 33.833C22.4764 33.833 26.0581 30.2513 26.0581 25.833C26.0581 21.4147 22.4764 17.833 18.0581 17.833C13.6398 17.833 10.0581 21.4147 10.0581 25.833C10.0581 30.2513 13.6398 33.833 18.0581 33.833Z" fill="#FEE9BC"/>
<path d="M21.278 31.1343C21.136 31.1343 20.994 31.0903 20.872 31.0033L18 28.9443L15.129 31.0033C14.884 31.1783 14.556 31.1783 14.313 31.0003C14.07 30.8243 13.968 30.5113 14.058 30.2263L15.129 26.7703L12.284 24.7653C12.042 24.5873 11.942 24.2733 12.034 23.9873C12.127 23.7023 12.392 23.5083 12.693 23.5063L16.217 23.5013L17.339 20.1313C17.434 19.8463 17.7 19.6543 18.001 19.6543C18.301 19.6543 18.568 19.8463 18.663 20.1313L19.766 23.5013L23.308 23.5063C23.609 23.5083 23.875 23.7023 23.967 23.9873C24.06 24.2733 23.959 24.5863 23.717 24.7653L20.871 26.7703L21.942 30.2263C22.034 30.5123 21.93 30.8243 21.688 31.0003C21.565 31.0903 21.421 31.1343 21.278 31.1343Z" fill="#FFCE63"/>
</svg>
