<svg width="139" height="39" viewBox="0 0 139 39" fill="none" xmlns="http://www.w3.org/2000/svg">
<path d="M18 9.5L11 1.5H0L14 18.5L25.521 13.75L18 9.5Z" fill="#C9DCC5"/>
<path d="M25 1.5L18 9.5L23.39 16.812L24.617 15.323L36 1.5H25Z" fill="#FBF6F3"/>
<path d="M23.2601 17.526C23.3401 17.309 23.3911 17.078 23.3911 16.833C23.3911 15.729 22.4951 14.833 21.3911 14.833H14.7241C13.6191 14.833 12.7241 15.729 12.7241 16.833C12.7241 17.078 12.7741 17.309 12.8551 17.526C9.59711 19.352 7.39111 22.833 7.39111 26.833C7.39111 32.724 12.1661 37.5 18.0581 37.5C23.9491 37.5 28.7251 32.724 28.7251 26.833C28.7241 22.833 26.5191 19.352 23.2601 17.526Z" fill="#FFCE63"/>
<path d="M18.0581 34.833C22.4764 34.833 26.0581 31.2513 26.0581 26.833C26.0581 22.4147 22.4764 18.833 18.0581 18.833C13.6398 18.833 10.0581 22.4147 10.0581 26.833C10.0581 31.2513 13.6398 34.833 18.0581 34.833Z" fill="#FEE9BC"/>
<path d="M21.278 32.1343C21.136 32.1343 20.994 32.0903 20.872 32.0033L18 29.9443L15.129 32.0033C14.884 32.1783 14.556 32.1783 14.313 32.0003C14.07 31.8243 13.968 31.5113 14.058 31.2263L15.129 27.7703L12.284 25.7653C12.042 25.5873 11.942 25.2733 12.034 24.9873C12.127 24.7023 12.392 24.5083 12.693 24.5063L16.217 24.5013L17.339 21.1313C17.434 20.8463 17.7 20.6543 18.001 20.6543C18.301 20.6543 18.568 20.8463 18.663 21.1313L19.766 24.5013L23.308 24.5063C23.609 24.5083 23.875 24.7023 23.967 24.9873C24.06 25.2733 23.959 25.5863 23.717 25.7653L20.871 27.7703L21.942 31.2263C22.034 31.5123 21.93 31.8243 21.688 32.0003C21.565 32.0903 21.421 32.1343 21.278 32.1343Z" fill="#FFCE63"/>
<path d="M69 9.5L68.5485 9.8951C68.6624 10.0253 68.827 10.1 69 10.1C69.173 10.1 69.3376 10.0253 69.4515 9.8951L69 9.5ZM62 1.5L62.4515 1.1049C62.3376 0.974688 62.173 0.9 62 0.9V1.5ZM76 1.5V0.9C75.827 0.9 75.6624 0.974688 75.5485 1.1049L76 1.5ZM87 1.5L87.4632 1.88141C87.6108 1.70218 87.6417 1.45389 87.5426 1.24392C87.4435 1.03395 87.2322 0.9 87 0.9V1.5ZM75.617 15.323L76.08 15.7046L76.0802 15.7044L75.617 15.323ZM74.391 16.8108L73.928 16.4292C73.8387 16.5375 73.7902 16.6737 73.791 16.814L74.391 16.8108ZM74.3911 16.833H74.9911L74.9911 16.8298L74.3911 16.833ZM74.2601 17.526L73.6972 17.3185C73.5951 17.5953 73.7094 17.9052 73.9668 18.0494L74.2601 17.526ZM79.7251 26.833H80.3251V26.8329L79.7251 26.833ZM63.8551 17.526L64.1485 18.0494C64.4066 17.9047 64.5207 17.5934 64.4172 17.3162L63.8551 17.526ZM63.7283 16.9558L64.3269 16.9151C64.3184 16.7902 64.2711 16.671 64.1914 16.5744L63.7283 16.9558ZM51 1.5V0.9C50.7678 0.9 50.5565 1.03396 50.4574 1.24393C50.3583 1.4539 50.3892 1.7022 50.5368 1.88142L51 1.5ZM120 9.5L119.548 9.8951C119.662 10.0253 119.827 10.1 120 10.1C120.173 10.1 120.338 10.0253 120.452 9.8951L120 9.5ZM113 1.5L113.452 1.1049C113.338 0.974688 113.173 0.9 113 0.9V1.5ZM127 1.5V0.9C126.827 0.9 126.662 0.974688 126.548 1.1049L127 1.5ZM138 1.5L138.463 1.88141C138.611 1.70218 138.642 1.45389 138.543 1.24392C138.444 1.03395 138.232 0.9 138 0.9V1.5ZM126.617 15.323L127.08 15.7046L127.08 15.7044L126.617 15.323ZM125.391 16.8108L124.928 16.4292C124.839 16.5375 124.79 16.6737 124.791 16.8141L125.391 16.8108ZM125.391 16.833H125.991L125.991 16.8297L125.391 16.833ZM125.26 17.526L124.697 17.3185C124.595 17.5953 124.709 17.9052 124.967 18.0494L125.26 17.526ZM130.725 26.833H131.325V26.8329L130.725 26.833ZM114.855 17.526L115.148 18.0494C115.407 17.9047 115.521 17.5934 115.417 17.3162L114.855 17.526ZM114.728 16.9558L115.327 16.9151C115.318 16.7902 115.271 16.671 115.191 16.5744L114.728 16.9558ZM102 1.5V0.9C101.768 0.9 101.556 1.03396 101.457 1.24393C101.358 1.4539 101.389 1.7022 101.537 1.88142L102 1.5ZM69.4515 9.1049L62.4515 1.1049L61.5485 1.8951L68.5485 9.8951L69.4515 9.1049ZM75.5485 1.1049L68.5485 9.1049L69.4515 9.8951L76.4515 1.8951L75.5485 1.1049ZM87 0.9H76V2.1H87V0.9ZM76.0802 15.7044L87.4632 1.88141L86.5368 1.11859L75.1538 14.9416L76.0802 15.7044ZM74.854 17.1924L76.08 15.7046L75.154 14.9414L73.928 16.4292L74.854 17.1924ZM74.9911 16.8298L74.991 16.8075L73.791 16.814L73.7911 16.8363L74.9911 16.8298ZM74.8231 17.7336C74.9223 17.4644 74.9911 17.1626 74.9911 16.833H73.7911C73.7911 16.9934 73.7579 17.1536 73.6972 17.3185L74.8231 17.7336ZM80.3251 26.8329C80.3241 22.6065 77.9935 18.9301 74.5534 17.0026L73.9668 18.0494C77.0447 19.774 79.1242 23.0595 79.1251 26.8332L80.3251 26.8329ZM69.0581 38.1C75.2805 38.1 80.3251 33.0554 80.3251 26.833H79.1251C79.1251 32.3926 74.6177 36.9 69.0581 36.9V38.1ZM57.7911 26.833C57.7911 33.0553 62.8347 38.1 69.0581 38.1V36.9C63.4975 36.9 58.9911 32.3927 58.9911 26.833H57.7911ZM63.5618 17.0026C60.1228 18.93 57.7911 22.6065 57.7911 26.833H58.9911C58.9911 23.0596 61.0715 19.774 64.1485 18.0494L63.5618 17.0026ZM63.1297 16.9965C63.1477 17.2625 63.2086 17.5096 63.293 17.7358L64.4172 17.3162C64.367 17.1816 64.336 17.0486 64.3269 16.9151L63.1297 16.9965ZM50.5368 1.88142L63.2651 17.3372L64.1914 16.5744L51.4632 1.11858L50.5368 1.88142ZM62 0.9H51V2.1H62V0.9ZM120.452 9.1049L113.452 1.1049L112.548 1.8951L119.548 9.8951L120.452 9.1049ZM126.548 1.1049L119.548 9.1049L120.452 9.8951L127.452 1.8951L126.548 1.1049ZM138 0.9H127V2.1H138V0.9ZM127.08 15.7044L138.463 1.88141L137.537 1.11859L126.154 14.9416L127.08 15.7044ZM125.854 17.1924L127.08 15.7046L126.154 14.9414L124.928 16.4292L125.854 17.1924ZM125.991 16.8297L125.991 16.8075L124.791 16.8141L124.791 16.8363L125.991 16.8297ZM125.823 17.7335C125.922 17.4644 125.991 17.1626 125.991 16.833H124.791C124.791 16.9934 124.758 17.1536 124.697 17.3185L125.823 17.7335ZM131.325 26.8329C131.324 22.6065 128.994 18.9301 125.553 17.0026L124.967 18.0494C128.045 19.774 130.124 23.0595 130.125 26.8332L131.325 26.8329ZM120.058 38.1C126.28 38.1 131.325 33.0554 131.325 26.833H130.125C130.125 32.3926 125.618 36.9 120.058 36.9V38.1ZM108.791 26.833C108.791 33.0553 113.835 38.1 120.058 38.1V36.9C114.498 36.9 109.991 32.3927 109.991 26.833H108.791ZM114.562 17.0026C111.123 18.93 108.791 22.6065 108.791 26.833H109.991C109.991 23.0596 112.071 19.774 115.148 18.0494L114.562 17.0026ZM114.13 16.9965C114.148 17.2625 114.209 17.5096 114.293 17.7358L115.417 17.3162C115.367 17.1816 115.336 17.0486 115.327 16.9151L114.13 16.9965ZM101.537 1.88142L114.265 17.3372L115.191 16.5744L102.463 1.11858L101.537 1.88142ZM113 0.9H102V2.1H113V0.9Z" fill="white"/>
</svg>
