<svg width="40" height="40" viewBox="0 0 40 40" fill="none" xmlns="http://www.w3.org/2000/svg">
<g clip-path="url(#clip0_101_3655)">
<path d="M10.0001 16.875C8.961 16.875 8.12506 17.7109 8.12506 18.75C8.12506 19.7891 8.961 20.625 10.0001 20.625C11.0391 20.625 11.8751 19.7891 11.8751 18.75C11.8751 17.7109 11.0391 16.875 10.0001 16.875ZM20.0001 16.875C18.961 16.875 18.1251 17.7109 18.1251 18.75C18.1251 19.7891 18.961 20.625 20.0001 20.625C21.0391 20.625 21.8751 19.7891 21.8751 18.75C21.8751 17.7109 21.0391 16.875 20.0001 16.875ZM30.0001 16.875C28.961 16.875 28.1251 17.7109 28.1251 18.75C28.1251 19.7891 28.961 20.625 30.0001 20.625C31.0391 20.625 31.8751 19.7891 31.8751 18.75C31.8751 17.7109 31.0391 16.875 30.0001 16.875ZM20.0001 2.5C8.95319 2.5 5.80633e-05 9.77344 5.80633e-05 18.75C5.80633e-05 22.4688 1.55475 25.875 4.13287 28.6172C2.96881 31.6953 0.546933 34.3047 0.507871 34.3359C-0.00775444 34.8828 -0.148379 35.6797 0.148496 36.3672C0.445371 37.0547 1.12506 37.5 1.87506 37.5C6.67975 37.5 10.4688 35.4922 12.7422 33.8828C15.0001 34.5938 17.4376 35 20.0001 35C31.0469 35 40.0001 27.7266 40.0001 18.75C40.0001 9.77344 31.0469 2.5 20.0001 2.5ZM20.0001 32.5C17.7891 32.5 15.6016 32.1641 13.5001 31.5L12.3126 31.125L11.2969 31.8438C9.50006 33.1172 6.72662 34.6016 3.28131 34.9375C4.21881 33.7578 5.60943 31.7812 6.46881 29.5L7.0235 28.0391L5.95318 26.8984C3.69537 24.5078 2.50006 21.6875 2.50006 18.75C2.50006 11.1719 10.3516 5 20.0001 5C29.6485 5 37.5001 11.1719 37.5001 18.75C37.5001 26.3281 29.6485 32.5 20.0001 32.5Z" fill="#88C1A3"/>
</g>
<defs>
<clipPath id="clip0_101_3655">
<rect width="40" height="40" fill="white"/>
</clipPath>
</defs>
</svg>
