<svg width="45" height="36" viewBox="0 0 45 36" fill="none" xmlns="http://www.w3.org/2000/svg">
<g clip-path="url(#clip0_101_3645)">
<path d="M44.9227 14.7448L44.3602 13.7675C44.2055 13.5003 43.861 13.4089 43.5938 13.5636L36 17.9932V16.8753C36 15.012 34.4883 13.5003 32.625 13.5003H22.5V17.8737C22.5 18.9987 21.7336 20.0393 20.6297 20.2151C19.2235 20.4471 18 19.3573 18 17.9932V11.3628C18 10.3925 18.4992 9.49246 19.3219 8.97918L21.6703 7.50964C22.4719 7.01043 23.4 6.74324 24.3492 6.74324H31.6055L39.9375 2.0323C40.2047 1.87761 40.3032 1.53308 40.1485 1.26589L39.586 0.281518C39.4313 0.0143309 39.0867 -0.0841065 38.8196 0.070581L31.0149 4.50027H24.3563C22.9852 4.50027 21.6422 4.88699 20.4821 5.61121L18.1266 7.08074C16.8961 7.85418 16.1086 9.09168 15.8625 10.4909L11.468 13.0925C9.94924 14.0065 9.00002 15.6729 9.00002 17.4448V20.1589L0.281274 25.1089C0.0140868 25.2636 -0.0843507 25.6081 0.0703368 25.8753L0.632837 26.8526C0.787524 27.1198 1.13206 27.2182 1.39924 27.0636L11.25 21.4667V17.4448C11.25 16.4604 11.7774 15.5323 12.6141 15.0261L15.75 13.1698V17.8034C15.75 20.1518 17.4586 22.2542 19.8 22.4792C22.4789 22.7393 24.75 20.63 24.75 18.0003V15.7503H32.625C33.2438 15.7503 33.75 16.2565 33.75 16.8753V19.1253C33.75 19.744 33.2438 20.2503 32.625 20.2503H30.9375V22.7815C30.9375 24.1737 29.8125 25.2987 28.4203 25.2987H27.2883V26.4237C27.2883 27.9846 26.0227 29.2503 24.4617 29.2503H16.7696L8.64143 33.9823C8.37424 34.137 8.28284 34.4815 8.43752 34.7487L9.00002 35.719C9.15471 35.9862 9.49924 36.0776 9.76643 35.9229L17.3742 31.5003H24.4617C26.9086 31.5003 28.9617 29.7565 29.4399 27.4432C31.5774 26.9721 33.1875 25.0596 33.1875 22.7815V22.451C34.1438 22.2893 34.9172 21.7057 35.4235 20.9253L44.7188 15.5112C44.986 15.3565 45.0774 15.012 44.9227 14.7448Z" fill="#1B4965"/>
</g>
<defs>
<clipPath id="clip0_101_3645">
<rect width="45" height="36" fill="white"/>
</clipPath>
</defs>
</svg>
