<svg width="45" height="40" viewBox="0 0 45 40" fill="none" xmlns="http://www.w3.org/2000/svg">
<path d="M39.5769 20C35.4904 20 33.9509 23.6338 32.7595 22.1489C31.1872 20.1894 32.601 13.7713 33.0309 11.8409C30.3568 12.3387 22.3088 13.7373 20.2312 12.0111C18.9329 10.9322 22.6776 8.61297 22.6776 5.25773C22.6775 2.0332 20.0349 0 16.7845 0C13.3815 0 10.1602 2.0007 10.1602 5.37687C10.1602 9.51906 13.7459 10.971 12.0626 12.2992C9.84258 14.0505 2.76141 12.5409 0 11.8782V38.8558C2.60273 39.4817 5.52195 40.0002 8.29398 40C11.5971 40 15 39.0751 15 35.7715C15 33.479 12.5 32.5815 12.5 30C12.5 28.0909 14.2605 27.5 16.1702 27.5C19.1934 27.5 20 29.0714 20 30C20 32.2487 17.3225 32.8397 17.3225 35.9828C17.3225 37.0569 17.7141 37.9707 18.4552 38.6256C21.2015 41.0529 26.7924 39.1193 33.0712 39.1166C32.9963 38.849 30.9769 32.3413 32.4695 30.3739C33.7753 28.6534 36.2646 32.6478 39.6976 32.6478C42.9865 32.6479 45 29.5012 45 26.25C45 22.9035 42.951 20 39.5769 20ZM39.6975 30.1479C37.3536 30.1479 36.4659 27.5 33.3293 27.5C29.1445 27.5 29.0448 32.5765 29.8705 36.7044C27.0271 36.9719 21.5092 37.9883 20.1107 36.7523C18.5385 35.3629 22.5 33.4593 22.5 30C22.5 27.056 19.8971 25 16.1702 25C10.3123 25 8.13227 29.6741 11.7821 34.5341C12.1513 35.0258 12.5 35.4902 12.5 35.7715C12.5 38.4035 5.15586 37.3831 2.5 36.8594V14.9977C7.4418 15.9084 15 16.4146 15 11.3645C15 9.13273 12.6602 8.00656 12.6602 5.37687C12.6602 3.44891 14.8645 2.5 16.7845 2.5C18.3498 2.5 20.1775 3.22219 20.1775 5.25766C20.1775 7.55656 17.5 8.44141 17.5 11.5553C17.5 16.0731 25.3785 15.5343 29.8609 14.922C29.2298 19.1636 29.2155 25 33.5223 25C35.7991 25 36.9344 22.5 39.5769 22.5C41.5268 22.5 42.5 24.3204 42.5 26.25C42.5 28.9385 40.8612 30.1479 39.6975 30.1479Z" fill="#88C1A3"/>
</svg>
