<svg width="35" height="40" viewBox="0 0 35 40" fill="none" xmlns="http://www.w3.org/2000/svg">
<g clip-path="url(#clip0_101_3678)">
<path d="M13.75 21.25H1.875C1.70924 21.25 1.55027 21.3158 1.43306 21.4331C1.31585 21.5503 1.25 21.7092 1.25 21.875V23.125C1.25 23.2908 1.31585 23.4497 1.43306 23.5669C1.55027 23.6842 1.70924 23.75 1.875 23.75H12.1242L0.290625 36.6992C0.103325 36.9241 0.000520283 37.2073 0 37.5L0 38.75C0 39.0815 0.131696 39.3995 0.366117 39.6339C0.600537 39.8683 0.918479 40 1.25 40H14.375C14.5408 40 14.6997 39.9342 14.8169 39.8169C14.9342 39.6997 15 39.5408 15 39.375V38.125C15 37.9592 14.9342 37.8003 14.8169 37.6831C14.6997 37.5658 14.5408 37.5 14.375 37.5H2.87578L14.7102 24.5492C14.8975 24.3251 15.0001 24.0422 15 23.75V22.5C15 22.1685 14.8683 21.8505 14.6339 21.6161C14.3995 21.3817 14.0815 21.25 13.75 21.25ZM21.25 0H13.125C12.9592 0 12.8003 0.065848 12.6831 0.183058C12.5658 0.300269 12.5 0.45924 12.5 0.625V1.875C12.5 2.04076 12.5658 2.19973 12.6831 2.31694C12.8003 2.43415 12.9592 2.5 13.125 2.5H19.2188L11.5188 12.2812C11.3451 12.502 11.2505 12.7746 11.25 13.0555V13.75C11.25 14.0815 11.3817 14.3995 11.6161 14.6339C11.8505 14.8683 12.1685 15 12.5 15H21.875C22.0408 15 22.1997 14.9342 22.3169 14.8169C22.4342 14.6997 22.5 14.5408 22.5 14.375V13.125C22.5 12.9592 22.4342 12.8003 22.3169 12.6831C22.1997 12.5658 22.0408 12.5 21.875 12.5H14.5312L22.2313 2.71875C22.4049 2.498 22.4995 2.2254 22.5 1.94453V1.25C22.5 0.918479 22.3683 0.600537 22.1339 0.366117C21.8995 0.131696 21.5815 0 21.25 0V0ZM35 19.4445V18.75C35 18.4185 34.8683 18.1005 34.6339 17.8661C34.3995 17.6317 34.0815 17.5 33.75 17.5H25.625C25.4592 17.5 25.3003 17.5658 25.1831 17.6831C25.0658 17.8003 25 17.9592 25 18.125V19.375C25 19.5408 25.0658 19.6997 25.1831 19.8169C25.3003 19.9342 25.4592 20 25.625 20H31.7188L24.0187 29.7812C23.8451 30.002 23.7505 30.2746 23.75 30.5555V31.25C23.75 31.5815 23.8817 31.8995 24.1161 32.1339C24.3505 32.3683 24.6685 32.5 25 32.5H34.375C34.5408 32.5 34.6997 32.4342 34.8169 32.3169C34.9342 32.1997 35 32.0408 35 31.875V30.625C35 30.4592 34.9342 30.3003 34.8169 30.1831C34.6997 30.0658 34.5408 30 34.375 30H27.0312L34.7336 20.2188C34.9064 19.9977 35.0002 19.7251 35 19.4445Z" fill="#88C1A3"/>
</g>
<defs>
<clipPath id="clip0_101_3678">
<rect width="35" height="40" fill="white"/>
</clipPath>
</defs>
</svg>
