<svg width="27" height="28" viewBox="0 0 27 28" fill="none" xmlns="http://www.w3.org/2000/svg">
<path d="M13.5 0.4375C6.04234 0.4375 0 6.50781 0 14C0 21.4922 6.04234 27.5625 13.5 27.5625C20.9577 27.5625 27 21.4922 27 14C27 6.50781 20.9577 0.4375 13.5 0.4375ZM13.5 25.8125C7.01673 25.8125 1.74194 20.5133 1.74194 14C1.74194 7.48672 7.01673 2.1875 13.5 2.1875C19.9833 2.1875 25.2581 7.48672 25.2581 14C25.2581 20.5133 19.9833 25.8125 13.5 25.8125ZM18.4101 17.8172C17.1907 19.2828 15.3998 20.125 13.5 20.125C11.6002 20.125 9.80927 19.2828 8.58992 17.8172C8.27964 17.4453 7.72984 17.3961 7.36512 17.7078C6.99496 18.0195 6.94597 18.5664 7.25625 18.9383C8.80222 20.8031 11.0831 21.875 13.5 21.875C15.9169 21.875 18.1978 20.8031 19.7492 18.9328C20.0595 18.5609 20.0105 18.0086 19.6403 17.7023C19.2702 17.3961 18.7204 17.4453 18.4101 17.8172ZM9.14516 13.125C10.1087 13.125 10.8871 12.343 10.8871 11.375C10.8871 10.407 10.1087 9.625 9.14516 9.625C8.18165 9.625 7.40323 10.407 7.40323 11.375C7.40323 12.343 8.18165 13.125 9.14516 13.125ZM17.8548 13.125C18.8183 13.125 19.5968 12.343 19.5968 11.375C19.5968 10.407 18.8183 9.625 17.8548 9.625C16.8913 9.625 16.1129 10.407 16.1129 11.375C16.1129 12.343 16.8913 13.125 17.8548 13.125Z" fill="#88C1A3"/>
</svg>
