<svg width="33" height="26" viewBox="0 0 33 26" fill="none" xmlns="http://www.w3.org/2000/svg">
<g clip-path="url(#clip0_101_3951)">
<path d="M25.9143 17.2773L32.4658 19.308C32.7308 19.3883 32.9995 19.1933 32.9995 18.9196V18.0695C32.9995 17.8912 32.8814 17.7338 32.7082 17.681L26.4 15.7239V12.3464C26.4 11.215 26.1004 10.1034 25.5301 9.12133L21.071 1.43508C20.5585 0.549961 19.5974 0 18.562 0C17.7994 0 17.0533 0.305195 16.5 0.860234C15.9467 0.305195 15.2006 0 14.438 0C13.4026 0 12.4415 0.549961 11.929 1.43508L7.46934 9.12184C6.89957 10.1041 6.59992 11.2157 6.6 12.347V15.7244L0.291328 17.681C0.207003 17.7066 0.133224 17.7582 0.0807981 17.8281C0.0283726 17.898 5.70792e-05 17.9826 0 18.0695L0 18.9196C0 19.1928 0.268641 19.3883 0.533672 19.308L7.0852 17.2773C7.77717 17.0676 8.24949 16.4374 8.24949 15.7244V12.347C8.24949 11.4984 8.4743 10.6646 8.90175 9.92824L13.3624 2.23996C13.7197 1.62246 14.4885 1.47012 15.0511 1.78598C15.6441 2.12012 15.8503 2.86508 15.5121 3.44906L12.2023 9.15332C11.7749 9.88995 11.5501 10.7236 11.55 11.572V15.8443C11.55 16.0687 11.7346 16.2505 11.9625 16.2505H12.7875C13.0154 16.2505 13.2 16.0687 13.2 15.8443V12.5943C13.2 11.9214 13.7543 11.3755 14.4375 11.3755C15.1207 11.3755 15.675 11.9214 15.675 12.5943V16.9655C15.675 18.7865 14.4442 20.3851 12.6643 20.8772L0.301125 24.3587C0.21454 24.3827 0.138273 24.4339 0.0839201 24.5045C0.0295671 24.5751 0.000100489 24.6612 0 24.7498L0 25.5938C0 25.8629 0.260906 26.0574 0.523875 25.9848L13.1098 22.4418C14.5747 22.037 15.7601 21.0895 16.5 19.8656C17.2399 21.0889 18.4253 22.037 19.8902 22.4418L32.4761 25.9848C32.7391 26.0574 33 25.8629 33 25.5938V24.7498C33 24.5675 32.8768 24.408 32.6989 24.3587L20.3357 20.8772C18.5553 20.3851 17.325 18.7865 17.325 16.9655V12.5943C17.325 11.9214 17.8793 11.3755 18.5625 11.3755C19.2457 11.3755 19.8 11.9214 19.8 12.5943V15.8443C19.8 16.0687 19.9846 16.2505 20.2125 16.2505H21.0375C21.2654 16.2505 21.45 16.0687 21.45 15.8443V11.572C21.45 10.7235 21.2252 9.88965 20.7977 9.15332L17.4879 3.44906C17.1497 2.86508 17.3559 2.12012 17.9489 1.78598C18.5145 1.46809 19.2828 1.62652 19.6376 2.23996L24.0982 9.92824C24.5257 10.6648 24.7505 11.4986 24.7505 12.347V15.7244C24.75 16.4374 25.2223 17.0671 25.9143 17.2773ZM19.2983 9.84395C18.9709 9.75863 18.6208 9.72918 18.2588 9.76574C17.5545 9.83684 16.9507 10.1832 16.5 10.6773C16.0499 10.1832 15.4455 9.83684 14.7412 9.76574C14.3798 9.72918 14.0296 9.75863 13.7017 9.84395L16.5 5.02176L19.2983 9.84395Z" fill="#88C1A3"/>
</g>
<defs>
<clipPath id="clip0_101_3951">
<rect width="33" height="26" fill="white"/>
</clipPath>
</defs>
</svg>
