<svg width="30" height="27" viewBox="0 0 30 27" fill="none" xmlns="http://www.w3.org/2000/svg">
<g clip-path="url(#clip0_101_3944)">
<path d="M29.1667 8.33333C29.0625 8.33333 28.9583 8.35417 28.8542 8.39583L20 11.6667L19.4635 11.4792C20.6771 9.66146 21.6667 7.77083 21.6667 6.40625C21.6667 2.86458 18.6823 0 15 0C11.3177 0 8.33333 2.86979 8.33333 6.40625C8.33333 7.02083 8.54167 7.75 8.875 8.52083L1.04688 11.25C0.416667 11.5 0 12.1146 0 12.7969V25.8333C0 26.3125 0.390625 26.6667 0.833333 26.6667C0.9375 26.6667 1.04167 26.6458 1.14583 26.6042L10 23.3333L18.9583 26.4948C19.6354 26.7188 20.3646 26.724 21.0417 26.5052L28.9531 23.75C29.5885 23.4948 30 22.8854 30 22.2031V9.16667C30 8.6875 29.6094 8.33333 29.1667 8.33333ZM9.16667 21.8646L1.66146 24.6354L1.59375 12.8177L9.16667 10.1875V21.8646ZM15 1.66667C17.7552 1.66667 20 3.79167 20 6.40625C20 7.8125 18.0156 11.0365 15 14.5729C11.9844 11.0365 10 7.8125 10 6.40625C10 3.79167 12.2448 1.66667 15 1.66667ZM19.1667 24.8021L10.8333 21.8594V11.9167C12.1042 13.7552 13.5469 15.4583 14.3594 16.3802C14.526 16.5729 14.7656 16.6667 15 16.6667C15.2344 16.6667 15.4687 16.5729 15.6406 16.3802C16.3073 15.625 17.3958 14.3438 18.4688 12.8958L19.1667 13.1406V24.8021ZM20.8333 24.8125V13.1354L28.3385 10.3646L28.4062 22.1823L20.8333 24.8125ZM16.25 6.66667C16.25 5.97396 15.6875 5.41667 15 5.41667C14.3125 5.41667 13.75 5.97396 13.75 6.66667C13.75 7.35417 14.3125 7.91667 15 7.91667C15.6875 7.91667 16.25 7.35938 16.25 6.66667Z" fill="#88C1A3"/>
</g>
<defs>
<clipPath id="clip0_101_3944">
<rect width="30" height="26.6667" fill="white"/>
</clipPath>
</defs>
</svg>
